<svg width="749" height="435" viewBox="0 0 749 435" fill="none" xmlns="http://www.w3.org/2000/svg">
<g clip-path="url(#clip0_916_3163)">
<path d="M189.258 433.982C189.258 433.982 197.154 414.545 173.465 399.968L189.258 433.982Z" fill="#E6E6E6"/>
<path d="M198.969 433.629C198.969 433.629 201.378 419.775 220.021 419.894L198.969 433.629Z" fill="#E6E6E6"/>
<path d="M20.8644 433.982C20.8644 433.982 31.2969 408.303 0.000362396 389.044L20.8644 433.982Z" fill="#E6E6E6"/>
<path d="M33.6945 433.515C33.6945 433.515 36.8767 415.213 61.5078 415.37L33.6945 433.515Z" fill="#E6E6E6"/>
<path d="M215.984 146.188L226.287 140.716L225.516 140.306L215.213 145.779L215.984 146.188Z" fill="#CBCBCB"/>
<path d="M224.97 146.188L225.741 145.779L215.439 140.306L214.668 140.716L224.97 146.188Z" fill="#CBCBCB"/>
<path d="M301.652 103.769L302.149 104.739L299.238 106.231L298.741 105.26L301.652 103.769Z" fill="#CBCBCB"/>
<path d="M241.309 135.915L247.102 132.947L246.605 131.977L240.812 134.945L241.309 135.915ZM252.895 129.979L258.688 127.01L258.191 126.04L252.398 129.008L252.895 129.979ZM264.481 124.041L270.274 121.073L269.777 120.103L263.984 123.071L264.481 124.041ZM276.067 118.104L281.86 115.136L281.363 114.166L275.57 117.134L276.067 118.104ZM287.653 112.168L293.446 109.199L292.949 108.229L287.156 111.197L287.653 112.168Z" fill="#CBCBCB"/>
<path d="M235.019 137.914L235.516 138.884L232.606 140.375L232.108 139.405L235.019 137.914Z" fill="#CBCBCB"/>
<path d="M454.772 176.746C454.772 177.087 454.783 177.425 454.805 177.759C454.929 179.69 455.417 181.581 456.243 183.33C456.25 183.345 456.257 183.359 456.263 183.373C456.302 183.454 456.341 183.535 456.382 183.615C456.628 184.11 456.9 184.591 457.199 185.056C458.561 187.191 460.428 188.958 462.635 190.2C464.843 191.442 467.322 192.122 469.854 192.178L469.701 200.956L467.71 199.908L467.355 200.584L469.686 201.811L469.401 218.115L469.398 218.333L470.937 218.676L470.934 218.457L470.449 192.179C472.487 192.15 474.499 191.716 476.368 190.903C478.238 190.09 479.926 188.913 481.337 187.442C481.434 187.342 481.53 187.238 481.624 187.136L481.635 187.124C482.81 185.842 483.761 184.371 484.446 182.773C484.431 182.79 484.415 182.806 484.401 182.823C485.95 179.199 486.055 175.12 484.694 171.421C483.333 167.722 480.609 164.684 477.08 162.929C477.027 162.902 476.972 162.876 476.919 162.85C473.428 161.168 469.433 160.86 465.726 161.985C462.018 163.111 458.869 165.588 456.902 168.926C456.808 169.084 456.717 169.246 456.63 169.408C455.408 171.661 454.769 174.184 454.772 176.746Z" fill="#E5E5E5"/>
<path d="M456.85 183.381C445.677 183.381 436.619 174.323 436.619 163.15C436.619 151.976 445.677 142.918 456.85 142.918C468.024 142.918 477.082 151.976 477.082 163.15C477.082 174.323 468.024 183.381 456.85 183.381Z" fill="#E5E5E5"/>
<path opacity="0.2" d="M471.789 149.636C473.676 154.051 473.932 158.992 472.511 163.578C471.09 168.164 468.085 172.095 464.032 174.669C459.98 177.243 455.144 178.292 450.389 177.629C445.634 176.966 441.27 174.634 438.077 171.049C439.229 173.746 440.955 176.16 443.133 178.124C445.312 180.088 447.891 181.555 450.693 182.423C453.494 183.291 456.451 183.54 459.359 183.152C462.266 182.764 465.054 181.748 467.53 180.176C470.006 178.603 472.11 176.511 473.697 174.045C475.284 171.578 476.316 168.796 476.721 165.891C477.126 162.986 476.895 160.028 476.043 157.221C475.191 154.414 473.74 151.826 471.789 149.636Z" fill="black"/>
<path d="M455.756 219.511L457.822 218.932L457.818 218.71L457.199 185.056L457.168 183.378L457.167 183.329L457.059 177.45L456.902 168.928V168.926L456.796 163.15H456.739L456.63 169.408L456.488 177.554L456.386 183.333V183.376L456.382 183.614V183.615L456.186 194.882L456.165 196.001L455.76 219.287L455.756 219.511Z" fill="#3F3D56"/>
<path d="M453.577 193.508L456.921 195.269L456.455 196.154L453.111 194.393L453.577 193.508Z" fill="#3F3D56"/>
<path d="M194.588 97.6727C220.124 96.163 245.736 96.5567 271.214 98.8505C283.493 99.9605 295.968 101.159 308.021 103.838C317.729 105.996 328.997 109.642 335.045 118.135C336.312 119.847 337.166 121.828 337.54 123.924C337.914 126.02 337.798 128.174 337.2 130.218C335.758 135.06 332.17 139.09 328.349 142.247C319.555 149.512 308.644 153.739 298.897 159.511C281.101 170.05 264.815 184.254 254.361 202.298C249.761 210.239 245.385 220.796 250.507 229.545C255.525 238.117 266.728 241.07 275.863 242.462C287.314 244.208 299.108 243.734 310.607 242.757C323.212 241.581 335.748 239.745 348.161 237.256C372.48 232.587 396.578 226.647 421.234 223.945C433.597 222.491 446.065 222.131 458.491 222.868C469.714 223.625 481.032 225.4 491.575 229.447C499.699 232.565 508.359 237.283 512.747 245.151C516.977 252.735 515.327 261.481 510.721 268.479C505.179 276.899 496.537 282.668 487.552 286.885C477.322 291.686 466.38 294.799 455.424 297.445C449.868 298.788 444.281 300.001 438.694 301.208C437.528 301.46 437.03 299.67 438.2 299.417C449.467 296.983 460.766 294.54 471.754 291.016C481.921 287.754 492.326 283.577 500.652 276.728C507.388 271.188 513.793 263.096 513.395 253.895C512.994 244.62 505.212 238.144 497.585 234.158C488.053 229.176 477.223 226.749 466.611 225.481C454.459 224.127 442.205 223.961 430.022 224.984C405.423 226.855 381.374 232.459 357.256 237.346C333.826 242.094 309.665 246.491 285.653 245.273C276.136 244.79 265.939 243.427 257.536 238.623C253.688 236.423 250.219 233.322 248.264 229.285C246.502 225.445 245.945 221.161 246.666 216.997C248.028 207.852 253.46 199.371 258.88 192.087C264.821 184.186 271.713 177.047 279.4 170.831C287.836 164.042 296.932 158.116 306.551 153.144C311.652 150.458 316.826 147.875 321.687 144.765C326.348 141.782 330.946 138.193 333.793 133.351C336.255 129.164 336.706 124.384 334.142 120.137C331.548 115.841 327.08 112.845 322.674 110.655C312.057 105.38 299.714 103.968 288.098 102.521C263.157 99.4253 238.022 98.172 212.897 98.7718C206.789 98.9154 200.687 99.1682 194.588 99.5302C193.394 99.6005 193.398 97.7427 194.588 97.6726V97.6727Z" fill="black"/>
<path d="M210.787 38.1282L206.93 35.0432C209.926 34.7126 211.157 36.3468 211.661 37.6404C214.002 36.6683 216.551 37.9422 216.551 37.9422L208.833 40.744C209.223 39.7041 209.9 38.7967 210.787 38.1282Z" fill="#3F3D56"/>
<path d="M229.507 47.895L225.649 44.8099C228.646 44.4793 229.877 46.1136 230.381 47.4071C232.722 46.435 235.271 47.709 235.271 47.709L227.553 50.5107C227.942 49.4708 228.62 48.5634 229.507 47.895Z" fill="#3F3D56"/>
<path d="M210.787 63.359L206.93 60.2739C209.926 59.9433 211.157 61.5775 211.661 62.8711C214.002 61.899 216.551 63.1729 216.551 63.1729L208.833 65.9747C209.223 64.9348 209.9 64.0274 210.787 63.359Z" fill="#3F3D56"/>
<path d="M268.613 67.9297C262.195 67.9297 256.992 62.7266 256.992 56.3083C256.992 49.89 262.195 44.687 268.613 44.687C275.031 44.687 280.234 49.89 280.234 56.3083C280.234 62.7266 275.031 67.9297 268.613 67.9297Z" fill="#FF6583"/>
<path d="M232.171 92.1191H289.182C289.253 92.12 289.325 92.1143 289.395 92.1022L262.431 45.3999C262.266 45.109 262.027 44.867 261.739 44.6985C261.45 44.5301 261.122 44.4414 260.788 44.4414C260.454 44.4414 260.125 44.5301 259.837 44.6985C259.548 44.867 259.309 45.109 259.145 45.3999L241.049 76.7397L240.183 78.2391L232.171 92.1191Z" fill="#277AFF"/>
<path d="M200.43 92.1197H249.738L240.184 78.2408L239.496 77.2406L227.046 59.154C226.825 58.8773 226.549 58.65 226.236 58.487C225.922 58.3239 225.577 58.2287 225.224 58.2077C224.871 58.1866 224.518 58.2401 224.187 58.3646C223.856 58.4892 223.555 58.682 223.303 58.9306C223.239 59.0012 223.179 59.0758 223.124 59.154L200.43 92.1197Z" fill="#277AFF"/>
<path d="M281.767 199.232C276.363 201.933 273.073 205.5 273.073 209.413C273.073 217.841 288.325 224.674 307.138 224.674C315.318 224.674 322.822 223.381 328.694 221.229C322.457 224.346 313.403 226.309 303.323 226.309C284.51 226.309 269.258 219.476 269.258 211.048C269.258 206.284 274.133 202.031 281.767 199.232Z" fill="#F1F1F1"/>
<path d="M269.747 205.022C263.649 208.069 259.937 212.094 259.937 216.509C259.937 226.02 277.147 233.73 298.375 233.73C307.605 233.73 316.073 232.271 322.699 229.842C315.661 233.36 305.445 235.575 294.07 235.575C272.842 235.575 255.632 227.865 255.632 218.354C255.632 212.979 261.133 208.18 269.747 205.022Z" fill="#F1F1F1"/>
<path d="M286.367 201.782C282.56 203.685 280.242 206.198 280.242 208.955C280.242 214.893 290.987 219.707 304.242 219.707C309.406 219.773 314.543 218.952 319.429 217.279C315.035 219.476 308.656 220.859 301.554 220.859C288.299 220.859 277.554 216.045 277.554 210.107C277.554 206.75 280.989 203.754 286.367 201.782Z" fill="#F1F1F1"/>
<path d="M339.86 200.692C339.86 200.692 339.023 212.92 315.042 212.92C291.06 212.92 283.9 200.692 283.9 200.692H339.86Z" fill="#3F3D56"/>
<path d="M305.82 168.608C309.282 165.978 313.628 164.789 317.947 165.291C314.087 166.222 310.679 168.482 308.319 171.675C305.96 174.868 304.801 178.79 305.045 182.752C305.289 186.715 306.921 190.465 309.654 193.344C312.388 196.224 316.048 198.048 319.992 198.498C316.219 199.409 312.247 198.993 308.745 197.32C305.243 195.647 302.423 192.819 300.76 189.312C299.097 185.805 298.692 181.832 299.614 178.062C300.536 174.291 302.727 170.953 305.82 168.608Z" fill="#3F3D56"/>
<path d="M313.679 163.084H315.314V202.006H313.679V163.084Z" fill="#3F3D56"/>
<path d="M206.22 134.166L206.228 134.151L206.251 133.2L201.128 125.763L206.244 132.488L206.263 132.689L206.438 125.088L202.013 117.377L206.45 123.752L206.404 108.003L206.404 107.951L206.406 108.002L206.699 120.415L210.732 115.373L206.713 121.484L206.801 128.284L210.511 121.647L206.814 129.283L206.863 133.064L206.999 143.539L207.009 144.322C206.667 144.325 206.329 144.319 205.994 144.305L206.226 134.243L206.22 134.166Z" fill="#CBCBCB"/>
<path d="M230.746 137.436L230.755 137.421L230.777 136.47L225.655 129.033L230.771 135.759L230.79 135.96L230.965 128.358L226.54 120.647L230.977 127.022L230.931 111.273L230.931 111.221L230.933 111.272L231.226 123.685L235.259 118.643L231.239 124.754L231.327 131.554L235.038 124.918L231.341 132.553L231.39 136.334L231.526 146.809L231.536 147.592C231.194 147.595 230.856 147.589 230.521 147.575L230.753 137.514L230.746 137.436Z" fill="#CBCBCB"/>
<path d="M218.756 127.08L218.765 127.065L218.787 126.115L213.664 118.677L218.781 125.403L218.799 125.604L218.974 118.002L214.55 110.291L218.986 116.667L218.94 100.917L218.94 100.865L218.942 100.917L219.236 113.329L223.268 108.287L219.249 114.398L219.337 121.198L223.047 114.562L219.35 122.198L219.4 125.979L219.535 136.454L219.545 137.236C219.203 137.239 218.865 137.233 218.53 137.219L218.762 127.158L218.756 127.08Z" fill="#CBCBCB"/>
<path d="M421.324 308.065C417.712 308.065 414.784 305.137 414.784 301.525C414.784 297.912 417.712 294.984 421.324 294.984C424.936 294.984 427.865 297.912 427.865 301.525C427.865 305.137 424.936 308.065 421.324 308.065Z" fill="#277AFF"/>
<path d="M72.2164 422.256L78.2715 424.506L89.8306 402.221L80.8937 398.901L72.2164 422.256Z" fill="#FFB7B7"/>
<path d="M68.4918 427.552L88.016 434.806L88.1077 434.559C88.8565 432.543 88.774 430.313 87.8784 428.358C86.9829 426.404 85.3475 424.885 83.3322 424.136L83.3317 424.136L71.407 419.705L68.4918 427.552Z" fill="#2F2E41"/>
<path d="M131.806 428.544L138.265 428.544L141.338 403.629L131.805 403.629L131.806 428.544Z" fill="#FFB7B7"/>
<path d="M130.685 434.806L151.514 434.805V434.541C151.514 432.391 150.659 430.33 149.139 428.809C147.619 427.289 145.557 426.435 143.407 426.435H143.406L130.685 426.435L130.685 434.806Z" fill="#2F2E41"/>
<path d="M102.232 255.746L104.339 251.531L122.254 260.488L121.727 264.176L125.151 268.655C125.151 268.655 130.947 271.816 129.893 282.354L128.84 292.365L127.522 305.273L136.743 337.15L141.485 379.301L144.91 413.285L128.313 412.495L113.033 357.171L86.1618 416.71L67.7208 411.968L93.0113 352.956L96.1727 328.193C96.1727 328.193 94.0651 315.021 104.076 306.063L102.495 301.322V295.478L97.2264 267.601L102.232 255.746Z" fill="#2F2E41"/>
<path opacity="0.2" d="M101.74 315.99L113.331 357.087L112.735 357.255L101.144 316.159L101.74 315.99Z" fill="black"/>
<path d="M102.759 305.273H128.576V307.908H102.759V305.273Z" fill="#3F3D56"/>
<path d="M128.576 309.488C127.994 309.488 127.522 308.309 127.522 306.854C127.522 305.399 127.994 304.219 128.576 304.219C129.158 304.219 129.63 305.399 129.63 306.854C129.63 308.309 129.158 309.488 128.576 309.488Z" fill="#3F3D56"/>
<path d="M110.197 248.932C103.391 245.211 100.89 236.678 104.611 229.872C108.331 223.066 116.864 220.565 123.67 224.285C130.476 228.006 132.978 236.539 129.257 243.345C125.537 250.151 117.003 252.652 110.197 248.932Z" fill="#FFB7B7"/>
<path d="M95.4426 231.595C88.5807 231.595 83.0179 226.032 83.0179 219.17C83.0179 212.308 88.5807 206.745 95.4426 206.745C102.305 206.745 107.867 212.308 107.867 219.17C107.867 226.032 102.305 231.595 95.4426 231.595Z" fill="#2F2E41"/>
<path d="M79.6755 217.839C79.1854 219.485 79.042 221.215 79.2543 222.92C79.4666 224.624 80.0299 226.266 80.9088 227.742C81.7876 229.218 82.9629 230.495 84.3604 231.494C85.7579 232.492 87.3472 233.19 89.0281 233.544C90.709 233.897 92.4449 233.898 94.1261 233.547C95.8074 233.195 97.3976 232.499 98.7963 231.502C100.195 230.505 101.372 229.229 102.252 227.755C103.133 226.28 103.698 224.639 103.913 222.934C103.022 225.923 101.041 228.468 98.3611 230.064C95.6815 231.66 92.4998 232.189 89.4478 231.548C86.3958 230.906 83.6967 229.14 81.8863 226.601C80.076 224.061 79.2868 220.934 79.6755 217.839Z" fill="#2F2E41"/>
<path d="M128.76 232.709C129.124 235.921 128.42 239.163 126.755 241.933C125.09 244.704 122.557 246.848 119.55 248.033C116.543 249.218 113.229 249.379 110.122 248.489C107.014 247.6 104.287 245.71 102.362 243.114C100.437 240.517 99.4228 237.358 99.4756 234.126C99.5284 230.894 100.646 227.77 102.654 225.238C104.663 222.705 107.45 220.906 110.585 220.119C113.72 219.331 117.027 219.6 119.994 220.883C122.448 218.904 125.49 219.517 127.963 221.606C130.759 223.967 131.589 225.589 133.758 229.472C131.626 229.772 130.893 232.41 128.76 232.709Z" fill="#2F2E41"/>
<path d="M77.135 274.945C77.2922 279.107 77.6037 287.3 77.6037 287.718C77.6037 288.159 83.8147 301.018 86.4978 306.553V306.556C86.6887 306.946 86.8599 307.3 87.0115 307.611C87.219 308.041 87.5452 308.402 87.9516 308.651C88.358 308.901 88.8275 309.029 89.3044 309.02L101.03 308.81C101.675 308.799 102.29 308.539 102.748 308.085C103.205 307.631 103.47 307.018 103.486 306.373L104.794 254.785C104.798 254.615 104.769 254.446 104.707 254.288C104.644 254.129 104.551 253.985 104.433 253.863C104.314 253.741 104.172 253.644 104.015 253.578C103.858 253.512 103.69 253.478 103.52 253.477H88.3979C87.7591 253.478 87.1334 253.658 86.5924 253.997C86.0513 254.337 85.6168 254.822 85.3387 255.397L78.0809 270.412C77.4004 271.823 77.0757 273.38 77.135 274.945V274.945Z" fill="#277AFF"/>
<path d="M103.69 302.833C106.699 301.01 109.403 298.725 111.702 296.062C117.045 290.053 120.295 282.473 120.963 274.459C121.559 267.603 120.199 262.507 116.919 259.312C112.751 255.251 107.078 255.841 106.838 255.868L106.584 255.897L102.74 259.15L103.828 260.435L107.267 257.525C108.32 257.472 112.618 257.461 115.758 260.532C118.648 263.358 119.834 267.995 119.285 274.314C118.649 281.943 115.563 289.162 110.488 294.894C108.298 297.427 105.731 299.607 102.878 301.358L103.69 302.833Z" fill="#277AFF"/>
<path d="M81.8699 283.234L102.358 287.442L102.245 287.992L81.7569 283.784L81.8699 283.234Z" fill="#3F3D56"/>
<path d="M95.3742 253.466L95.9351 253.489L94.6043 286.09L94.0434 286.067L95.3742 253.466Z" fill="#3F3D56"/>
<path d="M77.1353 274.945C77.2924 279.107 77.6039 287.3 77.6039 287.718C77.6039 288.159 83.8149 301.018 86.498 306.553L81.4967 277.513C81.3032 276.396 80.8165 275.35 80.0861 274.483C79.3558 273.615 78.4081 272.957 77.3401 272.576C77.1721 273.354 77.1032 274.15 77.1353 274.945Z" fill="#3F3D56"/>
<path d="M107.863 335.805C107.42 335.234 107.108 334.573 106.948 333.869C106.788 333.165 106.785 332.434 106.938 331.728C107.091 331.022 107.397 330.358 107.835 329.784C108.272 329.209 108.83 328.737 109.47 328.401L108.453 317.157L115.136 314.873L116.348 330.772C116.841 331.884 116.909 333.138 116.539 334.296C116.169 335.454 115.387 336.437 114.341 337.057C113.295 337.678 112.058 337.893 110.864 337.662C109.67 337.431 108.602 336.77 107.863 335.805Z" fill="#FFB7B7"/>
<path d="M106.99 324.924L118.831 324.495L118.33 267.391C118.339 265.776 117.839 264.198 116.902 262.881C115.965 261.565 114.638 260.576 113.108 260.055C111.679 259.58 110.134 259.579 108.704 260.051C107.082 260.6 105.689 261.674 104.745 263.102C103.801 264.531 103.359 266.233 103.49 267.941L106.99 324.924Z" fill="#CBCBCB"/>
<path d="M3.11301 435H239.026C239.191 435 239.348 434.935 239.464 434.819C239.58 434.702 239.646 434.545 239.646 434.381C239.646 434.217 239.58 434.059 239.464 433.943C239.348 433.827 239.191 433.762 239.026 433.762H3.11301C2.94878 433.762 2.79126 433.827 2.67514 433.943C2.55902 434.059 2.4938 434.217 2.4938 434.381C2.4938 434.545 2.55902 434.702 2.67514 434.819C2.79126 434.935 2.94878 435 3.11301 435Z" fill="#CBCBCB"/>
</g>
<path d="M466.539 416.368C467.019 416.094 467.185 415.483 466.911 415.004L462.446 407.19C462.172 406.71 461.561 406.544 461.082 406.818C460.602 407.092 460.435 407.702 460.709 408.182L464.679 415.128L457.733 419.097C457.253 419.371 457.087 419.982 457.361 420.461C457.635 420.941 458.245 421.107 458.725 420.833L466.539 416.368ZM418.204 320.455C413.973 326.971 408.906 337.988 407.426 349.94C405.943 361.91 408.052 374.923 418.336 385.207L419.75 383.793C410.034 374.077 407.977 361.757 409.41 350.185C410.846 338.595 415.779 327.862 419.882 321.545L418.204 320.455ZM418.336 385.207C438.444 405.316 458.26 414.414 465.78 416.465L466.306 414.535C459.16 412.586 439.642 403.684 419.75 383.793L418.336 385.207Z" fill="#333333"/>
<path d="M587.994 193.357C587.752 193.853 587.153 194.06 586.656 193.817L578.567 189.873C578.071 189.631 577.864 189.032 578.106 188.536C578.348 188.039 578.947 187.833 579.443 188.075L586.634 191.582L590.14 184.391C590.382 183.894 590.981 183.688 591.478 183.93C591.974 184.172 592.18 184.771 591.938 185.267L587.994 193.357ZM489.124 151.4C495.349 146.752 506.011 140.975 517.84 138.716C529.688 136.453 542.811 137.707 553.746 147.296L552.427 148.799C542.096 139.74 529.668 138.493 518.215 140.68C506.744 142.871 496.357 148.496 490.321 153.003L489.124 151.4ZM553.746 147.296C575.127 166.045 585.502 185.223 588.04 192.593L586.149 193.244C583.737 186.241 573.577 167.347 552.427 148.799L553.746 147.296Z" fill="#333333"/>
<path d="M496.281 409.832V422H493.491V412.604L490.881 414.206L489.639 412.316L493.743 409.832H496.281ZM499.915 419.048C500.359 419.048 500.737 419.21 501.049 419.534C501.373 419.846 501.535 420.224 501.535 420.668C501.535 421.124 501.373 421.514 501.049 421.838C500.737 422.15 500.359 422.306 499.915 422.306C499.459 422.306 499.069 422.15 498.745 421.838C498.433 421.514 498.277 421.124 498.277 420.668C498.277 420.224 498.433 419.846 498.745 419.534C499.069 419.21 499.459 419.048 499.915 419.048ZM499.915 412.82C500.359 412.82 500.737 412.982 501.049 413.306C501.373 413.618 501.535 413.996 501.535 414.44C501.535 414.896 501.373 415.286 501.049 415.61C500.737 415.922 500.359 416.078 499.915 416.078C499.459 416.078 499.069 415.922 498.745 415.61C498.433 415.286 498.277 414.896 498.277 414.44C498.277 413.996 498.433 413.618 498.745 413.306C499.069 412.982 499.459 412.82 499.915 412.82ZM511.553 409.526C513.197 409.526 514.475 409.868 515.387 410.552C516.299 411.236 516.755 412.25 516.755 413.594C516.755 414.998 516.305 416.06 515.405 416.78C514.517 417.488 513.323 417.842 511.823 417.842H510.473V422H507.521V409.526H511.553ZM511.571 415.718C512.267 415.718 512.795 415.556 513.155 415.232C513.527 414.896 513.713 414.35 513.713 413.594C513.713 412.286 512.981 411.632 511.517 411.632H510.473V415.718H511.571ZM524.924 419.228C524.924 419.588 524.972 419.852 525.068 420.02C525.176 420.188 525.344 420.314 525.572 420.398L524.978 422.252C524.39 422.204 523.91 422.078 523.538 421.874C523.166 421.658 522.878 421.322 522.674 420.866C522.05 421.826 521.09 422.306 519.794 422.306C518.846 422.306 518.09 422.03 517.526 421.478C516.962 420.926 516.68 420.206 516.68 419.318C516.68 418.274 517.064 417.476 517.832 416.924C518.6 416.372 519.71 416.096 521.162 416.096H522.134V415.682C522.134 415.118 522.014 414.734 521.774 414.53C521.534 414.314 521.114 414.206 520.514 414.206C520.202 414.206 519.824 414.254 519.38 414.35C518.936 414.434 518.48 414.554 518.012 414.71L517.364 412.838C517.964 412.61 518.576 412.436 519.2 412.316C519.836 412.196 520.424 412.136 520.964 412.136C522.332 412.136 523.334 412.418 523.97 412.982C524.606 413.546 524.924 414.392 524.924 415.52V419.228ZM520.622 420.272C521.27 420.272 521.774 419.966 522.134 419.354V417.662H521.432C520.784 417.662 520.298 417.776 519.974 418.004C519.662 418.232 519.506 418.586 519.506 419.066C519.506 419.45 519.602 419.75 519.794 419.966C519.998 420.17 520.274 420.272 520.622 420.272ZM532.2 422.018C531.816 423.254 531.186 424.202 530.31 424.862C529.446 425.534 528.282 425.912 526.818 425.996L526.512 423.998C527.424 423.878 528.096 423.674 528.528 423.386C528.972 423.098 529.326 422.636 529.59 422H528.618L525.702 412.442H528.726L530.436 420.182L532.308 412.442H535.242L532.2 422.018ZM546.808 412.136C547.564 412.136 548.17 412.394 548.626 412.91C549.082 413.414 549.31 414.116 549.31 415.016V422H546.466V415.502C546.466 414.65 546.196 414.224 545.656 414.224C545.356 414.224 545.092 414.326 544.864 414.53C544.636 414.734 544.414 415.046 544.198 415.466V422H541.354V415.502C541.354 414.65 541.084 414.224 540.544 414.224C540.256 414.224 539.992 414.332 539.752 414.548C539.524 414.752 539.302 415.058 539.086 415.466V422H536.242V412.442H538.726L538.924 413.558C539.296 413.078 539.704 412.724 540.148 412.496C540.604 412.256 541.12 412.136 541.696 412.136C542.236 412.136 542.698 412.268 543.082 412.532C543.478 412.796 543.766 413.168 543.946 413.648C544.33 413.132 544.75 412.754 545.206 412.514C545.674 412.262 546.208 412.136 546.808 412.136ZM559.781 417.032C559.781 417.428 559.763 417.77 559.727 418.058H553.805C553.901 418.862 554.129 419.426 554.489 419.75C554.849 420.074 555.347 420.236 555.983 420.236C556.367 420.236 556.739 420.17 557.099 420.038C557.459 419.894 557.849 419.678 558.269 419.39L559.439 420.974C558.323 421.862 557.081 422.306 555.713 422.306C554.165 422.306 552.977 421.85 552.149 420.938C551.321 420.026 550.907 418.802 550.907 417.266C550.907 416.294 551.081 415.424 551.429 414.656C551.777 413.876 552.287 413.264 552.959 412.82C553.631 412.364 554.435 412.136 555.371 412.136C556.751 412.136 557.831 412.568 558.611 413.432C559.391 414.296 559.781 415.496 559.781 417.032ZM556.991 416.222C556.967 414.758 556.451 414.026 555.443 414.026C554.951 414.026 554.567 414.206 554.291 414.566C554.027 414.926 553.865 415.52 553.805 416.348H556.991V416.222ZM566.977 412.136C567.805 412.136 568.453 412.388 568.921 412.892C569.389 413.396 569.623 414.104 569.623 415.016V422H566.779V415.502C566.779 415.022 566.701 414.692 566.545 414.512C566.401 414.32 566.179 414.224 565.879 414.224C565.303 414.224 564.751 414.638 564.223 415.466V422H561.379V412.442H563.863L564.061 413.576C564.469 413.096 564.907 412.736 565.375 412.496C565.855 412.256 566.389 412.136 566.977 412.136ZM577.761 421.55C577.413 421.79 577.005 421.976 576.537 422.108C576.081 422.24 575.625 422.306 575.169 422.306C573.081 422.294 572.037 421.142 572.037 418.85V414.422H570.687V412.442H572.037V410.372L574.881 410.048V412.442H577.077L576.771 414.422H574.881V418.814C574.881 419.258 574.953 419.576 575.097 419.768C575.241 419.96 575.469 420.056 575.781 420.056C576.105 420.056 576.447 419.954 576.807 419.75L577.761 421.55Z" fill="#333333"/>
<path d="M582.284 213.58C583.16 213.58 583.91 213.736 584.534 214.048C585.17 214.36 585.65 214.78 585.974 215.308C586.31 215.836 586.478 216.418 586.478 217.054C586.478 217.702 586.346 218.32 586.082 218.908C585.818 219.496 585.35 220.174 584.678 220.942C584.006 221.698 583.028 222.658 581.744 223.822H586.73L586.442 226H578.522V223.984C579.998 222.532 581.072 221.44 581.744 220.708C582.416 219.964 582.884 219.346 583.148 218.854C583.424 218.362 583.562 217.858 583.562 217.342C583.562 216.85 583.418 216.466 583.13 216.19C582.854 215.902 582.476 215.758 581.996 215.758C581.564 215.758 581.18 215.86 580.844 216.064C580.508 216.256 580.154 216.574 579.782 217.018L578.108 215.686C578.612 215.026 579.212 214.51 579.908 214.138C580.616 213.766 581.408 213.58 582.284 213.58ZM589.459 223.048C589.903 223.048 590.281 223.21 590.593 223.534C590.917 223.846 591.079 224.224 591.079 224.668C591.079 225.124 590.917 225.514 590.593 225.838C590.281 226.15 589.903 226.306 589.459 226.306C589.003 226.306 588.613 226.15 588.289 225.838C587.977 225.514 587.821 225.124 587.821 224.668C587.821 224.224 587.977 223.846 588.289 223.534C588.613 223.21 589.003 223.048 589.459 223.048ZM589.459 216.82C589.903 216.82 590.281 216.982 590.593 217.306C590.917 217.618 591.079 217.996 591.079 218.44C591.079 218.896 590.917 219.286 590.593 219.61C590.281 219.922 589.903 220.078 589.459 220.078C589.003 220.078 588.613 219.922 588.289 219.61C587.977 219.286 587.821 218.896 587.821 218.44C587.821 217.996 587.977 217.618 588.289 217.306C588.613 216.982 589.003 216.82 589.459 216.82ZM601.097 213.526C602.741 213.526 604.019 213.868 604.931 214.552C605.843 215.236 606.299 216.25 606.299 217.594C606.299 218.998 605.849 220.06 604.949 220.78C604.061 221.488 602.867 221.842 601.367 221.842H600.017V226H597.065V213.526H601.097ZM601.115 219.718C601.811 219.718 602.339 219.556 602.699 219.232C603.071 218.896 603.257 218.35 603.257 217.594C603.257 216.286 602.525 215.632 601.061 215.632H600.017V219.718H601.115ZM612.636 216.172C612.984 216.172 613.302 216.214 613.59 216.298L613.14 219.052C612.78 218.968 612.492 218.926 612.276 218.926C611.712 218.926 611.28 219.124 610.98 219.52C610.692 219.904 610.464 220.486 610.296 221.266V226H607.452V216.442H609.936L610.17 218.296C610.386 217.636 610.71 217.12 611.142 216.748C611.586 216.364 612.084 216.172 612.636 216.172ZM622.466 221.032C622.466 221.428 622.448 221.77 622.412 222.058H616.49C616.586 222.862 616.814 223.426 617.174 223.75C617.534 224.074 618.032 224.236 618.668 224.236C619.052 224.236 619.424 224.17 619.784 224.038C620.144 223.894 620.534 223.678 620.954 223.39L622.124 224.974C621.008 225.862 619.766 226.306 618.398 226.306C616.85 226.306 615.662 225.85 614.834 224.938C614.006 224.026 613.592 222.802 613.592 221.266C613.592 220.294 613.766 219.424 614.114 218.656C614.462 217.876 614.972 217.264 615.644 216.82C616.316 216.364 617.12 216.136 618.056 216.136C619.436 216.136 620.516 216.568 621.296 217.432C622.076 218.296 622.466 219.496 622.466 221.032ZM619.676 220.222C619.652 218.758 619.136 218.026 618.128 218.026C617.636 218.026 617.252 218.206 616.976 218.566C616.712 218.926 616.55 219.52 616.49 220.348H619.676V220.222ZM632.631 212.644V226H630.111L629.967 224.884C629.295 225.832 628.389 226.306 627.249 226.306C626.061 226.306 625.155 225.85 624.531 224.938C623.919 224.026 623.613 222.778 623.613 221.194C623.613 220.222 623.775 219.352 624.099 218.584C624.423 217.816 624.879 217.216 625.467 216.784C626.067 216.352 626.751 216.136 627.519 216.136C628.431 216.136 629.187 216.436 629.787 217.036V212.338L632.631 212.644ZM628.131 224.218C628.791 224.218 629.343 223.858 629.787 223.138V219.016C629.559 218.74 629.325 218.536 629.085 218.404C628.857 218.272 628.593 218.206 628.293 218.206C627.765 218.206 627.345 218.452 627.033 218.944C626.721 219.436 626.565 220.192 626.565 221.212C626.565 222.328 626.697 223.108 626.961 223.552C627.237 223.996 627.627 224.218 628.131 224.218ZM637.7 216.442V226H634.856V216.442H637.7ZM636.26 211.402C636.752 211.402 637.154 211.558 637.466 211.87C637.79 212.17 637.952 212.554 637.952 213.022C637.952 213.49 637.79 213.88 637.466 214.192C637.154 214.492 636.752 214.642 636.26 214.642C635.768 214.642 635.366 214.492 635.054 214.192C634.742 213.88 634.586 213.49 634.586 213.022C634.586 212.554 634.742 212.17 635.054 211.87C635.366 211.558 635.768 211.402 636.26 211.402ZM642.78 212.338V226H639.936V212.644L642.78 212.338ZM648.684 216.442L645.786 220.636L648.918 226H645.714L642.87 220.78L645.786 216.442H648.684ZM655.862 225.55C655.514 225.79 655.106 225.976 654.638 226.108C654.182 226.24 653.726 226.306 653.27 226.306C651.182 226.294 650.138 225.142 650.138 222.85V218.422H648.788V216.442H650.138V214.372L652.982 214.048V216.442H655.178L654.872 218.422H652.982V222.814C652.982 223.258 653.054 223.576 653.198 223.768C653.342 223.96 653.57 224.056 653.882 224.056C654.206 224.056 654.548 223.954 654.908 223.75L655.862 225.55ZM660.635 216.136C662.099 216.136 663.245 216.586 664.073 217.486C664.901 218.374 665.315 219.622 665.315 221.23C665.315 222.25 665.123 223.144 664.739 223.912C664.367 224.668 663.827 225.256 663.119 225.676C662.423 226.096 661.595 226.306 660.635 226.306C659.183 226.306 658.037 225.862 657.197 224.974C656.369 224.074 655.955 222.82 655.955 221.212C655.955 220.192 656.141 219.304 656.513 218.548C656.897 217.78 657.437 217.186 658.133 216.766C658.841 216.346 659.675 216.136 660.635 216.136ZM660.635 218.224C660.059 218.224 659.627 218.47 659.339 218.962C659.051 219.442 658.907 220.192 658.907 221.212C658.907 222.256 659.045 223.018 659.321 223.498C659.609 223.978 660.047 224.218 660.635 224.218C661.211 224.218 661.643 223.978 661.931 223.498C662.219 223.006 662.363 222.25 662.363 221.23C662.363 220.186 662.219 219.424 661.931 218.944C661.655 218.464 661.223 218.224 660.635 218.224ZM672.191 216.172C672.539 216.172 672.857 216.214 673.145 216.298L672.695 219.052C672.335 218.968 672.047 218.926 671.831 218.926C671.267 218.926 670.835 219.124 670.535 219.52C670.247 219.904 670.019 220.486 669.851 221.266V226H667.007V216.442H669.491L669.725 218.296C669.941 217.636 670.265 217.12 670.697 216.748C671.141 216.364 671.639 216.172 672.191 216.172ZM679.676 213.526L679.406 215.164H677.426V220.672H675.338V215.164H673.286V213.526H679.676ZM688.136 220.672H686.138L686.066 217.756L686.048 217.054C686.048 216.574 686.096 215.938 686.192 215.146H686.138L684.878 219.934H683.258L681.854 215.164H681.818C681.902 216.064 681.938 216.928 681.926 217.756L681.854 220.672H679.928L680.18 213.526H682.862L684.05 218.026L685.094 213.526H687.884L688.136 220.672ZM708.414 213.526L706.326 226H702.492L700.944 216.478L699.306 226H695.562L693.51 213.526H696.462L697.704 223.768L699.432 213.526H702.528L704.148 223.768L705.606 213.526H708.414ZM712.548 216.442V226H709.704V216.442H712.548ZM711.108 211.402C711.6 211.402 712.002 211.558 712.314 211.87C712.638 212.17 712.8 212.554 712.8 213.022C712.8 213.49 712.638 213.88 712.314 214.192C712.002 214.492 711.6 214.642 711.108 214.642C710.616 214.642 710.214 214.492 709.902 214.192C709.59 213.88 709.434 213.49 709.434 213.022C709.434 212.554 709.59 212.17 709.902 211.87C710.214 211.558 710.616 211.402 711.108 211.402ZM721.516 216.442V218.44L717.196 223.84H721.606L721.354 226H713.902V223.984L718.24 218.584H714.28V216.442H721.516ZM730.378 223.228C730.378 223.588 730.426 223.852 730.522 224.02C730.63 224.188 730.798 224.314 731.026 224.398L730.432 226.252C729.844 226.204 729.364 226.078 728.992 225.874C728.62 225.658 728.332 225.322 728.128 224.866C727.504 225.826 726.544 226.306 725.248 226.306C724.3 226.306 723.544 226.03 722.98 225.478C722.416 224.926 722.134 224.206 722.134 223.318C722.134 222.274 722.518 221.476 723.286 220.924C724.054 220.372 725.164 220.096 726.616 220.096H727.588V219.682C727.588 219.118 727.468 218.734 727.228 218.53C726.988 218.314 726.568 218.206 725.968 218.206C725.656 218.206 725.278 218.254 724.834 218.35C724.39 218.434 723.934 218.554 723.466 218.71L722.818 216.838C723.418 216.61 724.03 216.436 724.654 216.316C725.29 216.196 725.878 216.136 726.418 216.136C727.786 216.136 728.788 216.418 729.424 216.982C730.06 217.546 730.378 218.392 730.378 219.52V223.228ZM726.076 224.272C726.724 224.272 727.228 223.966 727.588 223.354V221.662H726.886C726.238 221.662 725.752 221.776 725.428 222.004C725.116 222.232 724.96 222.586 724.96 223.066C724.96 223.45 725.056 223.75 725.248 223.966C725.452 224.17 725.728 224.272 726.076 224.272ZM737.827 216.172C738.175 216.172 738.493 216.214 738.781 216.298L738.331 219.052C737.971 218.968 737.683 218.926 737.467 218.926C736.903 218.926 736.471 219.124 736.171 219.52C735.883 219.904 735.655 220.486 735.487 221.266V226H732.643V216.442H735.127L735.361 218.296C735.577 217.636 735.901 217.12 736.333 216.748C736.777 216.364 737.275 216.172 737.827 216.172ZM747.891 212.644V226H745.371L745.227 224.884C744.555 225.832 743.649 226.306 742.509 226.306C741.321 226.306 740.415 225.85 739.791 224.938C739.179 224.026 738.873 222.778 738.873 221.194C738.873 220.222 739.035 219.352 739.359 218.584C739.683 217.816 740.139 217.216 740.727 216.784C741.327 216.352 742.011 216.136 742.779 216.136C743.691 216.136 744.447 216.436 745.047 217.036V212.338L747.891 212.644ZM743.391 224.218C744.051 224.218 744.603 223.858 745.047 223.138V219.016C744.819 218.74 744.585 218.536 744.345 218.404C744.117 218.272 743.853 218.206 743.553 218.206C743.025 218.206 742.605 218.452 742.293 218.944C741.981 219.436 741.825 220.192 741.825 221.212C741.825 222.328 741.957 223.108 742.221 223.552C742.497 223.996 742.887 224.218 743.391 224.218Z" fill="#333333"/>
<path d="M408.315 44.58C409.167 44.58 409.893 44.718 410.493 44.994C411.105 45.27 411.567 45.642 411.879 46.11C412.203 46.578 412.365 47.1 412.365 47.676C412.365 48.408 412.155 49.02 411.735 49.512C411.327 50.004 410.745 50.358 409.989 50.574C410.805 50.658 411.471 50.952 411.987 51.456C412.503 51.948 412.761 52.65 412.761 53.562C412.761 54.246 412.581 54.876 412.221 55.452C411.861 56.016 411.327 56.466 410.619 56.802C409.923 57.138 409.089 57.306 408.117 57.306C406.341 57.306 404.949 56.694 403.941 55.47L405.471 53.976C405.879 54.384 406.275 54.684 406.659 54.876C407.055 55.056 407.487 55.146 407.955 55.146C408.519 55.146 408.975 54.99 409.323 54.678C409.671 54.366 409.845 53.934 409.845 53.382C409.845 52.758 409.677 52.314 409.341 52.05C409.017 51.774 408.525 51.636 407.865 51.636H406.857L407.163 49.674H407.865C408.405 49.674 408.831 49.536 409.143 49.26C409.455 48.984 409.611 48.594 409.611 48.09C409.611 47.646 409.467 47.304 409.179 47.064C408.891 46.812 408.495 46.686 407.991 46.686C407.139 46.686 406.347 47.04 405.615 47.748L404.211 46.218C405.363 45.126 406.731 44.58 408.315 44.58ZM415.524 54.048C415.968 54.048 416.346 54.21 416.658 54.534C416.982 54.846 417.144 55.224 417.144 55.668C417.144 56.124 416.982 56.514 416.658 56.838C416.346 57.15 415.968 57.306 415.524 57.306C415.068 57.306 414.678 57.15 414.354 56.838C414.042 56.514 413.886 56.124 413.886 55.668C413.886 55.224 414.042 54.846 414.354 54.534C414.678 54.21 415.068 54.048 415.524 54.048ZM415.524 47.82C415.968 47.82 416.346 47.982 416.658 48.306C416.982 48.618 417.144 48.996 417.144 49.44C417.144 49.896 416.982 50.286 416.658 50.61C416.346 50.922 415.968 51.078 415.524 51.078C415.068 51.078 414.678 50.922 414.354 50.61C414.042 50.286 413.886 49.896 413.886 49.44C413.886 48.996 414.042 48.618 414.354 48.306C414.678 47.982 415.068 47.82 415.524 47.82ZM428.224 44.22C429.004 44.22 429.694 44.334 430.294 44.562C430.906 44.79 431.482 45.132 432.022 45.588L430.618 47.262C430.246 46.974 429.88 46.758 429.52 46.614C429.16 46.47 428.776 46.398 428.368 46.398C427.528 46.398 426.862 46.752 426.37 47.46C425.89 48.168 425.65 49.26 425.65 50.736C425.65 52.188 425.89 53.268 426.37 53.976C426.862 54.672 427.54 55.02 428.404 55.02C428.86 55.02 429.274 54.936 429.646 54.768C430.018 54.588 430.42 54.336 430.852 54.012L432.166 55.704C431.698 56.172 431.128 56.556 430.456 56.856C429.796 57.156 429.064 57.306 428.26 57.306C427.108 57.306 426.106 57.054 425.254 56.55C424.402 56.046 423.736 55.302 423.256 54.318C422.788 53.322 422.554 52.128 422.554 50.736C422.554 49.38 422.794 48.21 423.274 47.226C423.766 46.242 424.438 45.498 425.29 44.994C426.154 44.478 427.132 44.22 428.224 44.22ZM432.033 52.464V50.268H437.775V52.464H432.033ZM447.377 44.526L447.089 46.794H444.011V57H441.059V46.794H437.837V44.526H447.377ZM455.861 52.032C455.861 52.428 455.843 52.77 455.807 53.058H449.885C449.981 53.862 450.209 54.426 450.569 54.75C450.929 55.074 451.427 55.236 452.063 55.236C452.447 55.236 452.819 55.17 453.179 55.038C453.539 54.894 453.929 54.678 454.349 54.39L455.519 55.974C454.403 56.862 453.161 57.306 451.793 57.306C450.245 57.306 449.057 56.85 448.229 55.938C447.401 55.026 446.987 53.802 446.987 52.266C446.987 51.294 447.161 50.424 447.509 49.656C447.857 48.876 448.367 48.264 449.039 47.82C449.711 47.364 450.515 47.136 451.451 47.136C452.831 47.136 453.911 47.568 454.691 48.432C455.471 49.296 455.861 50.496 455.861 52.032ZM453.071 51.222C453.047 49.758 452.531 49.026 451.523 49.026C451.031 49.026 450.647 49.206 450.371 49.566C450.107 49.926 449.945 50.52 449.885 51.348H453.071V51.222ZM460.825 47.136C461.509 47.136 462.151 47.238 462.751 47.442C463.351 47.646 463.879 47.934 464.335 48.306L463.291 49.908C462.511 49.416 461.725 49.17 460.933 49.17C460.561 49.17 460.273 49.236 460.069 49.368C459.877 49.488 459.781 49.662 459.781 49.89C459.781 50.07 459.823 50.22 459.907 50.34C460.003 50.448 460.189 50.562 460.465 50.682C460.741 50.802 461.167 50.946 461.743 51.114C462.739 51.402 463.477 51.78 463.957 52.248C464.449 52.704 464.695 53.34 464.695 54.156C464.695 54.804 464.509 55.368 464.137 55.848C463.765 56.316 463.255 56.676 462.607 56.928C461.959 57.18 461.239 57.306 460.447 57.306C459.643 57.306 458.893 57.18 458.197 56.928C457.513 56.676 456.931 56.328 456.451 55.884L457.837 54.336C458.641 54.96 459.487 55.272 460.375 55.272C460.807 55.272 461.143 55.194 461.383 55.038C461.635 54.882 461.761 54.66 461.761 54.372C461.761 54.144 461.713 53.964 461.617 53.832C461.521 53.7 461.335 53.58 461.059 53.472C460.783 53.352 460.345 53.208 459.745 53.04C458.797 52.764 458.089 52.38 457.621 51.888C457.153 51.396 456.919 50.784 456.919 50.052C456.919 49.5 457.075 49.008 457.387 48.576C457.711 48.132 458.167 47.784 458.755 47.532C459.355 47.268 460.045 47.136 460.825 47.136ZM472.154 56.55C471.806 56.79 471.398 56.976 470.93 57.108C470.474 57.24 470.018 57.306 469.562 57.306C467.474 57.294 466.43 56.142 466.43 53.85V49.422H465.08V47.442H466.43V45.372L469.274 45.048V47.442H471.47L471.164 49.422H469.274V53.814C469.274 54.258 469.346 54.576 469.49 54.768C469.634 54.96 469.862 55.056 470.174 55.056C470.498 55.056 470.84 54.954 471.2 54.75L472.154 56.55Z" fill="#333333"/>
<path d="M132.102 12.248V14.372H130.734V17H127.962L127.944 14.372H122.814V12.482L126.27 4.526L128.682 5.426L125.748 12.248H127.98L128.286 9.368H130.734V12.248H132.102ZM134.647 14.048C135.091 14.048 135.469 14.21 135.781 14.534C136.105 14.846 136.267 15.224 136.267 15.668C136.267 16.124 136.105 16.514 135.781 16.838C135.469 17.15 135.091 17.306 134.647 17.306C134.191 17.306 133.801 17.15 133.477 16.838C133.165 16.514 133.009 16.124 133.009 15.668C133.009 15.224 133.165 14.846 133.477 14.534C133.801 14.21 134.191 14.048 134.647 14.048ZM134.647 7.82C135.091 7.82 135.469 7.982 135.781 8.306C136.105 8.618 136.267 8.996 136.267 9.44C136.267 9.896 136.105 10.286 135.781 10.61C135.469 10.922 135.091 11.078 134.647 11.078C134.191 11.078 133.801 10.922 133.477 10.61C133.165 10.286 133.009 9.896 133.009 9.44C133.009 8.996 133.165 8.618 133.477 8.306C133.801 7.982 134.191 7.82 134.647 7.82ZM151.595 4.526L148.121 17H144.449L140.849 4.526H143.963L146.339 14.696L148.571 4.526H151.595ZM151.736 12.464V10.268H157.478V12.464H151.736ZM167.08 4.526L166.792 6.794H163.714V17H160.762V6.794H157.54V4.526H167.08ZM175.564 12.032C175.564 12.428 175.546 12.77 175.51 13.058H169.588C169.684 13.862 169.912 14.426 170.272 14.75C170.632 15.074 171.13 15.236 171.766 15.236C172.15 15.236 172.522 15.17 172.882 15.038C173.242 14.894 173.632 14.678 174.052 14.39L175.222 15.974C174.106 16.862 172.864 17.306 171.496 17.306C169.948 17.306 168.76 16.85 167.932 15.938C167.104 15.026 166.69 13.802 166.69 12.266C166.69 11.294 166.864 10.424 167.212 9.656C167.56 8.876 168.07 8.264 168.742 7.82C169.414 7.364 170.218 7.136 171.154 7.136C172.534 7.136 173.614 7.568 174.394 8.432C175.174 9.296 175.564 10.496 175.564 12.032ZM172.774 11.222C172.75 9.758 172.234 9.026 171.226 9.026C170.734 9.026 170.35 9.206 170.074 9.566C169.81 9.926 169.648 10.52 169.588 11.348H172.774V11.222ZM180.528 7.136C181.212 7.136 181.854 7.238 182.454 7.442C183.054 7.646 183.582 7.934 184.038 8.306L182.994 9.908C182.214 9.416 181.428 9.17 180.636 9.17C180.264 9.17 179.976 9.236 179.772 9.368C179.58 9.488 179.484 9.662 179.484 9.89C179.484 10.07 179.526 10.22 179.61 10.34C179.706 10.448 179.892 10.562 180.168 10.682C180.444 10.802 180.87 10.946 181.446 11.114C182.442 11.402 183.18 11.78 183.66 12.248C184.152 12.704 184.398 13.34 184.398 14.156C184.398 14.804 184.212 15.368 183.84 15.848C183.468 16.316 182.958 16.676 182.31 16.928C181.662 17.18 180.942 17.306 180.15 17.306C179.346 17.306 178.596 17.18 177.9 16.928C177.216 16.676 176.634 16.328 176.154 15.884L177.54 14.336C178.344 14.96 179.19 15.272 180.078 15.272C180.51 15.272 180.846 15.194 181.086 15.038C181.338 14.882 181.464 14.66 181.464 14.372C181.464 14.144 181.416 13.964 181.32 13.832C181.224 13.7 181.038 13.58 180.762 13.472C180.486 13.352 180.048 13.208 179.448 13.04C178.5 12.764 177.792 12.38 177.324 11.888C176.856 11.396 176.622 10.784 176.622 10.052C176.622 9.5 176.778 9.008 177.09 8.576C177.414 8.132 177.87 7.784 178.458 7.532C179.058 7.268 179.748 7.136 180.528 7.136ZM191.857 16.55C191.509 16.79 191.101 16.976 190.633 17.108C190.177 17.24 189.721 17.306 189.265 17.306C187.177 17.294 186.133 16.142 186.133 13.85V9.422H184.783V7.442H186.133V5.372L188.977 5.048V7.442H191.173L190.867 9.422H188.977V13.814C188.977 14.258 189.049 14.576 189.193 14.768C189.337 14.96 189.565 15.056 189.877 15.056C190.201 15.056 190.543 14.954 190.903 14.75L191.857 16.55Z" fill="#333333"/>
<path d="M405.875 78.0166C405.608 77.5331 405 77.3576 404.517 77.6246L396.638 81.9754C396.155 82.2424 395.979 82.8508 396.246 83.3342C396.513 83.8177 397.121 83.9932 397.605 83.7262L404.608 79.8588L408.475 86.8619C408.742 87.3454 409.351 87.5209 409.834 87.2539C410.318 86.9869 410.493 86.3785 410.226 85.8951L405.875 78.0166ZM347.371 172.428C356.696 168.699 377.59 155.61 386.925 132.88L385.075 132.12C376.01 154.19 355.637 166.968 346.629 170.572L347.371 172.428ZM386.925 132.88C396.142 110.439 403.453 87.4708 405.961 78.7772L404.039 78.2228C401.547 86.8626 394.258 109.761 385.075 132.12L386.925 132.88Z" fill="#333333"/>
<path d="M156.317 39.2589C156.726 38.8881 157.359 38.9193 157.73 39.3286L163.772 45.9987C164.143 46.408 164.111 47.0404 163.702 47.4112C163.293 47.782 162.66 47.7508 162.29 47.3415L156.919 41.4125L150.99 46.7835C150.58 47.1543 149.948 47.123 149.577 46.7137C149.206 46.3044 149.238 45.672 149.647 45.3012L156.317 39.2589ZM157.987 40.0493C157.724 45.3802 158.531 52.9191 161.687 58.3451C163.252 61.0368 165.366 63.1617 168.175 64.2865C170.98 65.4102 174.602 65.5854 179.277 64.1499L179.864 66.0618C174.863 67.5973 170.758 67.4754 167.431 66.1432C164.108 64.8122 161.686 62.3225 159.958 59.3506C156.526 53.4493 155.717 45.4642 155.99 39.9507L157.987 40.0493Z" fill="#333333"/>
<defs>
<clipPath id="clip0_916_3163">
<rect width="515.188" height="400" fill="white" transform="matrix(-1 0 0 1 515.188 35)"/>
</clipPath>
</defs>
</svg>
